<?xml version="1.0" standalone="no"?>
<!DOCTYPE svg PUBLIC "-//W3C//DTD SVG 20010904//EN"
 "http://www.w3.org/TR/2001/REC-SVG-20010904/DTD/svg10.dtd">
<svg version="1.0" xmlns="http://www.w3.org/2000/svg"
 width="460.000000pt" height="460.000000pt" viewBox="0 0 460.000000 460.000000"
 preserveAspectRatio="xMidYMid meet">
<metadata>
Created by potrace 1.16, written by Peter Selinger 2001-2019
</metadata>
<g transform="translate(0.000000,460.000000) scale(0.100000,-0.100000)"
fill="#000000" stroke="none">
<path d="M1606 3488 c-16 -112 -31 -209 -33 -215 -4 -10 -49 -13 -179 -13
l-174 0 0 -285 0 -285 141 0 142 0 -7 -37 c-9 -56 -42 -318 -61 -483 -9 -80
-19 -155 -22 -167 -5 -23 -8 -23 -159 -23 l-154 0 0 -295 0 -295 118 0 119 0
-28 -192 c-16 -106 -29 -217 -29 -245 l0 -53 339 0 338 0 21 168 c12 92 25
201 29 242 l8 75 163 3 162 2 0 -44 c0 -37 -38 -325 -54 -418 l-5 -28 344 0
345 0 0 42 c0 36 43 365 56 426 4 22 6 22 174 22 l170 0 0 295 0 295 -136 0
c-124 0 -135 1 -130 18 2 9 14 91 25 182 11 91 30 243 42 338 l22 172 153 0
154 0 0 285 0 285 -115 0 c-136 0 -125 -24 -90 205 13 88 25 175 25 193 l0 32
-340 0 -340 0 -4 -22 c-11 -54 -36 -256 -36 -293 0 -22 -3 -57 -6 -77 l-7 -38
-163 0 -164 0 0 28 c0 15 11 108 25 206 14 99 25 183 25 188 0 4 -152 8 -338
8 l-337 0 -29 -202z m909 -820 c-13 -60 -85 -597 -85 -639 l0 -49 -170 0 c-93
0 -170 1 -170 3 0 1 18 127 40 280 22 153 40 297 40 321 0 24 3 58 6 75 l7 31
168 0 169 0 -5 -22z"/>
</g>
</svg>
